<mxfile host="app.diagrams.net" modified="2020-12-02T13:22:19.504Z" agent="5.0 (Windows NT 10.0; Win64; x64) AppleWebKit/537.36 (KHTML, like Gecko) Chrome/87.0.4280.66 Safari/537.36" etag="4api04It2zjRyI_sZZFV" version="13.10.3" type="github">
  <diagram id="UF2JISPJcCN7phVnqitU" name="Page-1">
    <mxGraphModel dx="1422" dy="705" grid="1" gridSize="10" guides="1" tooltips="1" connect="1" arrows="1" fold="1" page="1" pageScale="1" pageWidth="827" pageHeight="1169" math="0" shadow="0">
      <root>
        <mxCell id="0" />
        <mxCell id="1" parent="0" />
        <mxCell id="WqKzCKCJgFLhh4M7YP5O-12" value="" style="rounded=1;whiteSpace=wrap;html=1;dashed=1;strokeWidth=2;strokeColor=#FF3333;" vertex="1" parent="1">
          <mxGeometry x="56" y="530" width="244" height="320" as="geometry" />
        </mxCell>
        <mxCell id="WqKzCKCJgFLhh4M7YP5O-13" value="" style="rounded=1;whiteSpace=wrap;html=1;dashed=1;strokeWidth=2;strokeColor=#FF3333;" vertex="1" parent="1">
          <mxGeometry x="30" y="280" width="320" height="180" as="geometry" />
        </mxCell>
        <mxCell id="WqKzCKCJgFLhh4M7YP5O-5" value="" style="shadow=0;dashed=0;html=1;strokeColor=none;labelPosition=center;verticalLabelPosition=bottom;verticalAlign=top;outlineConnect=0;align=center;shape=mxgraph.office.databases.database_mini_2;fillColor=#DA4026;" vertex="1" parent="1">
          <mxGeometry x="150" y="750" width="55" height="80" as="geometry" />
        </mxCell>
        <mxCell id="WqKzCKCJgFLhh4M7YP5O-7" value="" style="pointerEvents=1;shadow=0;dashed=0;html=1;strokeColor=none;fillColor=#505050;labelPosition=center;verticalLabelPosition=bottom;verticalAlign=top;outlineConnect=0;align=center;shape=mxgraph.office.servers.application_server_orange;" vertex="1" parent="1">
          <mxGeometry x="70" y="310" width="80" height="110" as="geometry" />
        </mxCell>
        <mxCell id="WqKzCKCJgFLhh4M7YP5O-8" value="" style="pointerEvents=1;shadow=0;dashed=0;html=1;strokeColor=none;fillColor=#505050;labelPosition=center;verticalLabelPosition=bottom;verticalAlign=top;outlineConnect=0;align=center;shape=mxgraph.office.servers.application_server_orange;" vertex="1" parent="1">
          <mxGeometry x="260" y="310" width="70" height="110" as="geometry" />
        </mxCell>
        <mxCell id="WqKzCKCJgFLhh4M7YP5O-9" value="" style="pointerEvents=1;shadow=0;dashed=0;html=1;strokeColor=none;fillColor=#505050;labelPosition=center;verticalLabelPosition=bottom;verticalAlign=top;outlineConnect=0;align=center;shape=mxgraph.office.servers.application_server_orange;" vertex="1" parent="1">
          <mxGeometry x="170" y="310" width="70" height="110" as="geometry" />
        </mxCell>
        <mxCell id="WqKzCKCJgFLhh4M7YP5O-21" value="" style="pointerEvents=1;shadow=0;dashed=0;html=1;strokeColor=none;labelPosition=center;verticalLabelPosition=bottom;verticalAlign=top;outlineConnect=0;align=center;shape=mxgraph.office.servers.server_generic;fillColor=#DA4026;" vertex="1" parent="1">
          <mxGeometry x="210" y="579" width="60" height="121" as="geometry" />
        </mxCell>
        <mxCell id="WqKzCKCJgFLhh4M7YP5O-22" value="" style="pointerEvents=1;shadow=0;dashed=0;html=1;strokeColor=none;labelPosition=center;verticalLabelPosition=bottom;verticalAlign=top;outlineConnect=0;align=center;shape=mxgraph.office.servers.server_generic;fillColor=#DA4026;" vertex="1" parent="1">
          <mxGeometry x="80" y="580" width="60" height="120" as="geometry" />
        </mxCell>
        <mxCell id="WqKzCKCJgFLhh4M7YP5O-25" value="" style="endArrow=classic;html=1;" edge="1" parent="1" source="WqKzCKCJgFLhh4M7YP5O-22" target="WqKzCKCJgFLhh4M7YP5O-5">
          <mxGeometry width="50" height="50" relative="1" as="geometry">
            <mxPoint x="390" y="540" as="sourcePoint" />
            <mxPoint x="440" y="490" as="targetPoint" />
          </mxGeometry>
        </mxCell>
        <mxCell id="WqKzCKCJgFLhh4M7YP5O-26" value="" style="endArrow=classic;html=1;" edge="1" parent="1" source="WqKzCKCJgFLhh4M7YP5O-21" target="WqKzCKCJgFLhh4M7YP5O-5">
          <mxGeometry width="50" height="50" relative="1" as="geometry">
            <mxPoint x="390" y="540" as="sourcePoint" />
            <mxPoint x="440" y="490" as="targetPoint" />
          </mxGeometry>
        </mxCell>
        <mxCell id="WqKzCKCJgFLhh4M7YP5O-27" value="" style="endArrow=classic;html=1;exitX=0.5;exitY=1;exitDx=0;exitDy=0;" edge="1" parent="1" source="WqKzCKCJgFLhh4M7YP5O-13">
          <mxGeometry width="50" height="50" relative="1" as="geometry">
            <mxPoint x="390" y="540" as="sourcePoint" />
            <mxPoint x="190" y="528" as="targetPoint" />
          </mxGeometry>
        </mxCell>
      </root>
    </mxGraphModel>
  </diagram>
</mxfile>
